<svg id="Camada_1" data-name="Camada 1" xmlns="http://www.w3.org/2000/svg" viewBox="0 0 3000 3000"><defs><style>.cls-1{fill:#f28abb;}.cls-1,.cls-2{stroke:#8c3626;stroke-linecap:round;stroke-linejoin:round;stroke-width:25.15px;}.cls-2{fill:#8c3626;}</style></defs><title>logopetshop</title><path class="cls-1" d="M2091.44,1454.4s119-47,107.31-129.11c0,5,97.25-50.31,68.75-152.59-3.36-8.39-13.42,35.21-48.63,58.69,0,0,90.55-132.47,26.83-206.25-5-6.71-5,93.9-45.27,149.23-8.39,6.71,77.13-115.69-38.57-224.68-10.06,0,30.18,197.86-186.12,323.62S2091.44,1454.4,2091.44,1454.4Z"/><path class="cls-1" d="M1741,2188.83s73.78,97.25,159.29,68.75c33.54-23.48,5-107.32,5-107.32s38.57,40.25,21.8,102.29c0,10.06,135.82,25.15,85.52-122.41-5-8.38,28.5,16.77,21.8,75.46-3.36,23.47,98.93-20.12-15.1-150.91s-90.54-62-90.54-62l-181.09,63.71Z"/><path class="cls-1" d="M964.64,1360.5s-249.84,65.39-236.43,370.57,332,335.35,332,335.35-186.12-70.42-204.56,21.8,38.56,107.32,38.56,107.32,5.87-41.08,27.67-44.44c0,0-77.13,134.14,97.25,110.67,10.06,3.35,18.45-26.83,8.39-78.81,0,0,18.44,77.13,60.36,67.07,15.09,1.68,57-6.71,57-33.53s-18.44-144.21-18.44-144.21l162.64,30.18s98.94,67.08,179.42,60.37,202.89-48.63,202.89-48.63,300.15-33.53,392.37-100.6,164.32-226.37,164.32-226.37,80.49-191.15-78.8-355.48-659-90.55-659-90.55Z"/><path class="cls-1" d="M1703.26,1738.61c0,15.09-119,558.37-119,558.37s-167.68,92.22-20.12,189.48c38.56-6.71,21.8-48.63,21.8-48.63s-10.07,52,55.33,65.4,85.52-53.66,85.52-53.66,1.67,30.18,25.15,25.15,41.92-48.63,41.92-48.63,18.44-47-38.57-90.54c-8.38-36.89,21.8-112.35,21.8-112.35s104-191.15,155.94-479.56-36.89-273.31-36.89-273.31Z"/><path class="cls-1" d="M1054.34,1725.2,1160,2302s-147.55,97.26-16.77,155.94c23.48,0,16.77-36.89,16.77-36.89s-21.8,80.49,60.37,82.17,87.19-53.66,87.19-53.66,3.35,33.53,36.89,30.18,48.63-73.78,48.63-73.78,10.06-62-47-87.19C1326,2300.34,1321,2189.67,1321,2189.67l-18.44-330.33-6.71-134.14-241.46-127.44Z"/><path class="cls-1" d="M1058.54,704.88v372.24s-11.74,100.61-53.66,202.89-97.25,270,53.66,437.64c57,58.69,83.84,75.46,83.84,75.46s46.95-8.39,98.93,35.21,273.31,88.87,410.81,55.33c72.1-21.79,114-57,114-57s117.37-38.56,137.5-65.39,169.35-109,152.58-358.83-72.1-593.58-72.1-593.58L2016,944.66s93.9,0,145.88-62c0,0-107.31-176.06-109-216.3s-25.15-58.69-102.28-125.76-107.32-78.81-107.32-78.81-447.7-224.69-729.4,52c-36.89,20.12-45.27,23.48-45.27,23.48s-97.26,75.45-90.55,155.94C959.61,750.15,911,775.3,911,775.3s-62,58.69-40.24,124.08,166,43.6,166,43.6Z"/><path class="cls-2" d="M1416.53,1562.55s-3.35,110.67,110.67,124.08,119-115.7,119-115.7-6.71-62-97.25-60.36S1435,1519,1416.53,1562.55Z"/><path class="cls-2" d="M1743.5,965.62s-159.29-8.39-122.4,114c15.09,10.06,53.66,13.41,48.62-26.83s-33.53-36.89-33.53-36.89,15.09-38.57,107.31-28.51C1760.27,982.38,1743.5,965.62,1743.5,965.62Z"/><path class="cls-2" d="M1316.82,957s158,21.74,98.77,135c-16.71,7-55.22,3.08-42.71-35.5s39.88-29.92,39.88-29.92-7.57-40.72-100-48.19C1297.2,970.35,1316.82,957,1316.82,957Z"/></svg>